PathFileType	4	(X/Y/Z)	Walk2.trc
DataRate	CameraRate	NumFrames	NumMarkers	Units	OrigDataRate	OrigDataStartFrame	OrigNumFrames
200.000000	200.000000	5	67	mm	200.000000	703	955
Frame#	Times		LBHD		LowerBodyModelVer		LWRR		RLFC		LElbow		RTH2		RToe		LACR1		RMT5		C7		RTB2		LCAR		LUA1		RTB3		RMT1		RTB4		LWRU		RMMAL		LToe		RCAR		RCAL		LTH3		RASI		RFA1		LASI		PELOrigin		LLFC		RElbow		RElbowM		LPSI		RTH3		LTB2		RPSI		LHJC		MidPelvis		OPelvis		RHJC		SACR		XPelvis		YPelvis		ZPelvis		LFHD		LMMAL		LCAL		RBHD		RUA1		LMT5		T10		STRN		RACR1		LTH2		RMFC		RLMAL		RKJC		LLMAL		RFHD		CLAV		LTH4		RWRR		LTB1		LTH1		LTB3		LTB4		RTB1		LMT1		RTH1		RTH4
			X1	Y1	Z1	X2	Y2	Z2	X3	Y3	Z3	X4	Y4	Z4	X5	Y5	Z5	X6	Y6	Z6	X7	Y7	Z7	X8	Y8	Z8	X9	Y9	Z9	X10	Y10	Z10	X11	Y11	Z11	X12	Y12	Z12	X13	Y13	Z13	X14	Y14	Z14	X15	Y15	Z15	X16	Y16	Z16	X17	Y17	Z17	X18	Y18	Z18	X19	Y19	Z19	X20	Y20	Z20	X21	Y21	Z21	X22	Y22	Z22	X23	Y23	Z23	X24	Y24	Z24	X25	Y25	Z25	X26	Y26	Z26	X27	Y27	Z27	X28	Y28	Z28	X29	Y29	Z29	X30	Y30	Z30	X31	Y31	Z31	X32	Y32	Z32	X33	Y33	Z33	X34	Y34	Z34	X35	Y35	Z35	X36	Y36	Z36	X37	Y37	Z37	X38	Y38	Z38	X39	Y39	Z39	X40	Y40	Z40	X41	Y41	Z41	X42	Y42	Z42	X43	Y43	Z43	X44	Y44	Z44	X45	Y45	Z45	X46	Y46	Z46	X47	Y47	Z47	X48	Y48	Z48	X49	Y49	Z49	X50	Y50	Z50	X51	Y51	Z51	X52	Y52	Z52	X53	Y53	Z53	X54	Y54	Z54	X55	Y55	Z55	X56	Y56	Z56	X57	Y57	Z57	X58	Y58	Z58	X59	Y59	Z59	X60	Y60	Z60	X61	Y61	Z61	X62	Y62	Z62	X63	Y63	Z63	X64	Y64	Z64	X65	Y65	Z65	X66	Y66	Z66	X67	Y67	Z67

703	3.515	-314.69	1612.5	-29.812	9	2014	4	-192.2	828.86	-244.2	-139.66	555.84	174.14	-304.27	1087.2	-257.02	-139.37	713.85	150.54	-10.93	78.785	146.55	-255.81	1426	-133.63	-95.621	60.877	172.63	-348.94	1483.4	34.534	-135.49	322.64	165.78	-264	951.43	-256.96	-273.39	1223.2	-215.12	-142.7	235.2	91.1	-53.511	64.474	102.68	-122.34	320.91	91.743	-119.09	828.87	-225.8	-174.94	107.5	65.73	-210.15	38.827	-16.687	-269.77	796.54	303.84	-256.2	63.2	79.064	-309.32	577.91	-98.802	-257.61	995	183.63	-353.63	935.91	312.07	-248.22	1039.5	-121.7	-252.92	1017.2	30.964	-325.97	513.89	-89.441	-377.93	1096.1	312.87	-411.95	1103.2	234.98	-443.25	1044.5	-6.2287	-155.15	599.51	178.11	-324.44	292.82	-70.777	-447.88	1043.2	62.563	-334.52	945.39	-88.125	-349.24	1030.5	29.566	-252.92	1017.2	30.964	-340.9	915.14	119.49	-445.56	1043.8	28.167	-173.67	1006.4	31.816	-242.27	1095.7	42.715	-255.35	1005.7	110.09	-136.79	1647	-3.426	-390.54	68.079	35.37	-477.37	33.918	2.957	-310.71	1608.3	106.94	-293.78	1250.6	275.44	-299.67	24.59	-74.007	-426.15	1227.3	32.711	-233.5	1200.8	35.508	-374.83	1375.6	184.34	-245.11	673.13	-75.848	-155.37	519.73	49.659	-208.55	104.48	142.35	-147.51	537.78	111.9	-413.17	59.129	-47.018	-135.08	1646.4	71.342	-168.92	1442.7	39.292	-303.43	669.88	-120.13	-266.63	840.62	253.35	-300.04	384.29	-2.4412	-298.42	760.73	-138.26	-345.01	204.66	2.805	-323.48	294.66	1.1314	-101.53	416.02	95.036	-259.68	29.339	5.1008	-235.46	769.32	206.43	-190.15	684.57	195.64
704	3.52	-309.77	1612.1	-29.793	9	2014	4	-183.94	829.34	-243.74	-135.62	554.88	174.35	-298.08	1086.8	-257.33	-134.94	712.84	150.66	7.7833	80.459	147.18	-250.97	1425.6	-133.61	-76.527	60.501	173.32	-344.01	1483	34.565	-124.87	321.79	166.3	-256.69	951.28	-257.01	-268	1222.9	-215.37	-128.98	233.98	91.826	-34.539	65.265	103.36	-111.44	320.32	92.292	-110.85	830.07	-225.23	-157.09	105.28	66.519	-210.08	38.686	-16.698	-265.51	796.24	303.76	-237.17	58.851	79.804	-306.87	577.6	-98.857	-252.59	994.44	183.67	-349.22	935.66	312.15	-243.67	1039	-121.94	-248.13	1016.7	30.868	-323.97	513.58	-89.466	-373.38	1095.9	313.08	-407.48	1103	235.22	-438.53	1044.1	-5.9142	-151.06	598.57	178.29	-323.41	292.47	-70.765	-442.97	1042.6	62.827	-330.03	944.85	-88.204	-344.44	1030	29.662	-248.13	1016.7	30.868	-336.1	914.55	119.61	-440.75	1043.4	28.456	-168.88	1005.8	31.59	-237.43	1095.1	42.611	-250.44	1005.2	110	-131.87	1646.6	-3.3959	-390.43	67.973	35.478	-477.37	33.961	3.0139	-305.79	1607.9	106.97	-288.99	1250.3	275.5	-299.64	24.53	-74.033	-421.36	1227	32.778	-228.74	1200.4	35.19	-369.89	1375.2	184.37	-242.12	672.45	-75.787	-151.01	518.31	49.893	-190.72	101.27	143.14	-143.32	536.59	112.12	-413.11	59.159	-46.937	-130.16	1646	71.374	-165.47	1441.1	38.878	-300.46	669.57	-120.16	-262.36	840.33	253.29	-298.58	383.82	-2.4754	-294.87	760.38	-138.26	-344.28	204.4	2.8036	-322.39	294.3	1.1314	-93.806	415.99	95.467	-259.67	29.368	5.1708	-230.73	768.66	206.76	-185.75	683.75	195.89
705	3.525	-304.82	1611.6	-29.756	9	2014	4	-175.75	829.82	-243.25	-131.76	553.76	174.55	-291.93	1086.3	-257.62	-130.6	711.66	150.79	26.359	82.409	147.81	-246.11	1425.2	-133.58	-57.498	60.427	174.07	-339.06	1482.6	34.604	-114.37	321.04	166.85	-249.44	951.12	-257.03	-262.61	1222.6	-215.59	-115.36	232.93	92.604	-15.693	66.308	104.06	-100.67	319.81	92.865	-102.68	831.25	-224.63	-139.3	103.32	67.393	-210.02	38.539	-16.707	-261.22	795.91	303.71	-218.15	54.814	80.666	-304.42	577.29	-98.905	-247.53	993.8	183.73	-344.78	935.38	312.24	-239.11	1038.5	-122.18	-243.32	1016.1	30.775	-321.95	513.27	-89.483	-368.79	1095.7	313.29	-402.98	1102.8	235.46	-433.78	1043.7	-5.5657	-147.14	597.47	178.46	-322.37	292.1	-70.746	-438.03	1042.1	63.124	-325.53	944.27	-88.281	-339.61	1029.5	29.777	-243.32	1016.1	30.775	-331.26	913.9	119.73	-435.91	1042.9	28.779	-164.07	1005.2	31.354	-232.55	1094.5	42.515	-245.49	1004.6	109.91	-126.93	1646.1	-3.3489	-390.32	67.874	35.589	-477.37	34.008	3.0731	-300.84	1607.4	107	-284.15	1249.9	275.56	-299.61	24.469	-74.062	-416.55	1226.7	32.87	-223.96	1199.9	34.865	-364.91	1374.8	184.42	-239.12	671.77	-75.735	-146.8	516.75	50.093	-172.88	98.342	144.03	-139.28	535.25	112.32	-413.05	59.192	-46.85	-125.22	1645.5	71.425	-162	1439.4	38.485	-297.48	669.26	-120.17	-258.05	840.01	253.25	-297.09	383.36	-2.5052	-291.32	760.03	-138.25	-343.55	204.13	2.8173	-321.3	293.94	1.1381	-86.259	415.94	95.898	-259.65	29.401	5.2432	-226.08	767.87	207.09	-181.49	682.78	196.14
706	3.53	-299.85	1611.1	-29.7	9	2014	4	-167.63	830.29	-242.74	-128.07	552.49	174.74	-285.81	1085.8	-257.89	-126.35	710.33	150.94	44.757	84.64	148.41	-241.23	1424.8	-133.53	-38.575	60.663	174.86	-334.09	1482.1	34.654	-104	320.38	167.41	-242.25	950.95	-257	-257.21	1222.2	-215.79	-101.86	232.03	93.428	2.9846	67.61	104.77	-90.042	319.37	93.456	-94.593	832.41	-224.02	-121.61	101.64	68.345	-209.94	38.385	-16.718	-256.92	795.54	303.68	-199.19	51.103	81.65	-301.97	576.96	-98.949	-242.41	993.11	183.78	-340.32	935.08	312.34	-234.52	1037.9	-122.41	-238.47	1015.5	30.683	-319.92	512.96	-89.493	-364.18	1095.4	313.51	-398.43	1102.6	235.71	-429.02	1043.2	-5.184	-143.37	596.22	178.62	-321.33	291.73	-70.717	-433.05	1041.5	63.454	-321.02	943.66	-88.356	-334.75	1028.9	29.909	-238.47	1015.5	30.683	-326.38	913.2	119.86	-431.03	1042.4	29.135	-159.23	1004.5	31.111	-227.63	1093.9	42.43	-240.5	1003.9	109.81	-121.96	1645.7	-3.2848	-390.21	67.78	35.702	-477.37	34.059	3.1348	-295.87	1606.8	107.06	-279.28	1249.5	275.64	-299.58	24.405	-74.094	-411.72	1226.3	32.99	-219.15	1199.4	34.538	-359.91	1374.3	184.49	-236.11	671.07	-75.69	-142.72	515.04	50.264	-155.08	95.721	145	-135.4	533.76	112.5	-412.98	59.227	-46.755	-120.26	1645	71.495	-158.5	1437.6	38.114	-294.5	668.93	-120.18	-253.72	839.65	253.24	-295.6	382.88	-2.5297	-287.77	759.66	-138.24	-342.83	203.86	2.8441	-320.2	293.57	1.1511	-78.889	415.87	96.322	-259.63	29.44	5.3176	-221.53	766.96	207.4	-177.36	681.68	196.38
707	3.535	-294.86	1610.6	-29.624	9	2014	4	-159.57	830.74	-242.2	-124.53	551.08	174.93	-279.73	1085.4	-258.13	-122.19	708.84	151.11	62.931	87.153	148.98	-236.32	1424.3	-133.46	-19.803	61.215	175.68	-329.1	1481.7	34.717	-93.767	319.82	167.99	-235.12	950.77	-256.94	-251.81	1221.8	-215.95	-88.513	231.3	94.288	21.448	69.171	105.48	-79.579	319.01	94.06	-86.579	833.53	-223.39	-104.07	100.25	69.366	-209.86	38.225	-16.731	-252.59	795.14	303.67	-180.33	47.73	82.75	-299.5	576.62	-98.989	-237.23	992.36	183.84	-335.83	934.75	312.46	-229.92	1037.3	-122.65	-233.58	1014.8	30.594	-317.87	512.64	-89.493	-359.53	1095.1	313.74	-393.84	1102.3	235.96	-424.24	1042.7	-4.7703	-139.74	594.82	178.76	-320.27	291.35	-70.68	-428.02	1040.9	63.817	-316.48	943.03	-88.428	-329.85	1028.3	30.059	-233.58	1014.8	30.594	-321.45	912.45	119.98	-426.13	1041.8	29.523	-154.35	1003.8	30.861	-222.68	1093.2	42.355	-235.46	1003.2	109.72	-116.96	1645.2	-3.2033	-390.1	67.692	35.818	-477.38	34.114	3.1993	-290.87	1606.3	107.14	-274.38	1249	275.73	-299.54	24.34	-74.132	-406.88	1225.9	33.14	-214.32	1198.9	34.211	-354.87	1373.8	184.58	-233.09	670.36	-75.648	-138.76	513.22	50.414	-137.37	93.415	146.06	-131.65	532.15	112.67	-412.91	59.266	-46.653	-115.27	1644.5	71.583	-154.96	1435.9	37.767	-291.5	668.6	-120.18	-249.36	839.25	253.24	-294.1	382.4	-2.5482	-284.23	759.29	-138.23	-342.11	203.59	2.882	-319.1	293.2	1.17	-71.695	415.79	96.734	-259.62	29.483	5.3935	-217.05	765.91	207.71	-173.37	680.44	196.61
